<?xml version="1.0" encoding="UTF-8" standalone="no"?><svg xmlns="http://www.w3.org/2000/svg" xmlns:xlink="http://www.w3.org/1999/xlink" contentStyleType="text/css" height="662px" preserveAspectRatio="none" style="width:366px;height:662px;background:#FFFFFF;" version="1.1" viewBox="0 0 366 662" width="366px" zoomAndPan="magnify"><defs/><g><ellipse cx="182.25" cy="20" fill="#222222" rx="10" ry="10" style="stroke:#222222;stroke-width:1.0;"/><rect fill="#F1F1F1" height="33.9688" rx="12.5" ry="12.5" style="stroke:#181818;stroke-width:0.5;" width="169" x="97.75" y="50"/><text fill="#000000" font-family="sans-serif" font-size="12" lengthAdjust="spacing" textLength="149" x="107.75" y="71.1387">Image de départ en RGB</text><line style="stroke:#181818;stroke-width:1.5;" x1="182.25" x2="340.5" y1="103.9688" y2="103.9688"/><rect fill="#F1F1F1" height="33.9688" rx="12.5" ry="12.5" style="stroke:#181818;stroke-width:0.5;" width="114" x="211.5" y="123.9688"/><text fill="#000000" font-family="sans-serif" font-size="12" lengthAdjust="spacing" textLength="94" x="221.5" y="145.1074">Gaussian_blur()</text><rect fill="#4682B4" height="33.9688" rx="12.5" ry="12.5" style="stroke:#181818;stroke-width:0.5;" width="116" x="210.5" y="177.9375"/><text fill="#000000" font-family="sans-serif" font-size="12" lengthAdjust="spacing" textLength="96" x="220.5" y="199.0762">Passage en HSV</text><path d="M89,236.3242 L89,261.457 A0,0 0 0 0 89,261.457 L197,261.457 A0,0 0 0 0 197,261.457 L197,254.3242 L217,248.8906 L197,246.3242 L197,246.3242 L187,236.3242 L89,236.3242 A0,0 0 0 0 89,236.3242 " fill="#FFAAAA" style="stroke:#181818;stroke-width:0.5;"/><path d="M187,236.3242 L187,246.3242 L197,246.3242 L187,236.3242 " fill="#FFAAAA" style="stroke:#181818;stroke-width:0.5;"/><text fill="#000000" font-family="sans-serif" font-size="13" lengthAdjust="spacing" textLength="87" x="95" y="253.3911">sur le canal S</text><rect fill="#F1F1F1" height="33.9688" rx="12.5" ry="12.5" style="stroke:#181818;stroke-width:0.5;" width="103" x="217" y="231.9063"/><text fill="#000000" font-family="sans-serif" font-size="12" lengthAdjust="spacing" textLength="83" x="227" y="253.0449">EqualizeHist()</text><path d="M10,290.293 L10,315.4258 A0,0 0 0 0 10,315.4258 L209,315.4258 A0,0 0 0 0 209,315.4258 L209,308.293 L229,302.8594 L209,300.293 L209,300.293 L199,290.293 L10,290.293 A0,0 0 0 0 10,290.293 " fill="#FFAAAA" style="stroke:#181818;stroke-width:0.5;"/><path d="M199,290.293 L199,300.293 L209,300.293 L199,290.293 " fill="#FFAAAA" style="stroke:#181818;stroke-width:0.5;"/><text fill="#000000" font-family="sans-serif" font-size="13" lengthAdjust="spacing" textLength="178" x="16" y="307.3599">Limites sur la couleur verte</text><rect fill="#F1F1F1" height="33.9688" rx="12.5" ry="12.5" style="stroke:#181818;stroke-width:0.5;" width="79" x="229" y="285.875"/><text fill="#000000" font-family="sans-serif" font-size="12" lengthAdjust="spacing" textLength="59" x="239" y="307.0137">inRange()</text><rect fill="#4682B4" height="33.9688" rx="12.5" ry="12.5" style="stroke:#181818;stroke-width:0.5;" width="111" x="213" y="339.8438"/><text fill="#000000" font-family="sans-serif" font-size="12" lengthAdjust="spacing" textLength="91" x="223" y="360.9824">Masque binaire</text><rect fill="#F1F1F1" height="33.9688" rx="12.5" ry="12.5" style="stroke:#181818;stroke-width:0.5;" width="106" x="215.5" y="393.8125"/><text fill="#000000" font-family="sans-serif" font-size="12" lengthAdjust="spacing" textLength="86" x="225.5" y="414.9512">Dilate &amp; Erode</text><rect fill="#F1F1F1" height="33.9688" rx="12.5" ry="12.5" style="stroke:#181818;stroke-width:0.5;" width="81" x="228" y="447.7813"/><text fill="#000000" font-family="sans-serif" font-size="12" lengthAdjust="spacing" textLength="61" x="238" y="468.9199">Mask_final</text><line style="stroke:#181818;stroke-width:1.5;" x1="182.25" x2="340.5" y1="501.75" y2="501.75"/><rect fill="#F1F1F1" height="33.9688" rx="12.5" ry="12.5" style="stroke:#181818;stroke-width:0.5;" width="91" x="136.75" y="521.75"/><text fill="#000000" font-family="sans-serif" font-size="12" lengthAdjust="spacing" textLength="71" x="146.75" y="542.8887">bitwise_and</text><rect fill="#F1F1F1" height="33.9688" rx="12.5" ry="12.5" style="stroke:#181818;stroke-width:0.5;" width="60" x="152.25" y="575.7188"/><text fill="#000000" font-family="sans-serif" font-size="12" lengthAdjust="spacing" textLength="40" x="162.25" y="596.8574">terrain</text><ellipse cx="182.25" cy="640.6875" fill="none" rx="11" ry="11" style="stroke:#222222;stroke-width:1.0;"/><ellipse cx="182.25" cy="640.6875" fill="#222222" rx="6" ry="6" style="stroke:#111111;stroke-width:1.0;"/><line style="stroke:#181818;stroke-width:1.0;" x1="182.25" x2="182.25" y1="30" y2="50"/><polygon fill="#181818" points="178.25,40,182.25,50,186.25,40,182.25,44" style="stroke:#181818;stroke-width:1.0;"/><line style="stroke:#181818;stroke-width:1.0;" x1="268.5" x2="268.5" y1="157.9375" y2="177.9375"/><polygon fill="#181818" points="264.5,167.9375,268.5,177.9375,272.5,167.9375,268.5,171.9375" style="stroke:#181818;stroke-width:1.0;"/><line style="stroke:#181818;stroke-width:1.0;" x1="268.5" x2="268.5" y1="211.9063" y2="231.9063"/><polygon fill="#181818" points="264.5,221.9063,268.5,231.9063,272.5,221.9063,268.5,225.9063" style="stroke:#181818;stroke-width:1.0;"/><line style="stroke:#181818;stroke-width:1.0;" x1="268.5" x2="268.5" y1="265.875" y2="285.875"/><polygon fill="#181818" points="264.5,275.875,268.5,285.875,272.5,275.875,268.5,279.875" style="stroke:#181818;stroke-width:1.0;"/><line style="stroke:#181818;stroke-width:1.0;" x1="268.5" x2="268.5" y1="319.8438" y2="339.8438"/><polygon fill="#181818" points="264.5,329.8438,268.5,339.8438,272.5,329.8438,268.5,333.8438" style="stroke:#181818;stroke-width:1.0;"/><line style="stroke:#181818;stroke-width:1.0;" x1="268.5" x2="268.5" y1="373.8125" y2="393.8125"/><polygon fill="#181818" points="264.5,383.8125,268.5,393.8125,272.5,383.8125,268.5,387.8125" style="stroke:#181818;stroke-width:1.0;"/><line style="stroke:#181818;stroke-width:1.0;" x1="268.5" x2="268.5" y1="427.7813" y2="447.7813"/><polygon fill="#181818" points="264.5,437.7813,268.5,447.7813,272.5,437.7813,268.5,441.7813" style="stroke:#181818;stroke-width:1.0;"/><line style="stroke:#181818;stroke-width:1.0;" x1="268.5" x2="268.5" y1="105.4688" y2="123.9688"/><polygon fill="#181818" points="264.5,113.9688,268.5,123.9688,272.5,113.9688,268.5,117.9688" style="stroke:#181818;stroke-width:1.0;"/><line style="stroke:#181818;stroke-width:1.0;" x1="340.5" x2="340.5" y1="105.4688" y2="501.75"/><polygon fill="#181818" points="336.5,491.75,340.5,501.75,344.5,491.75,340.5,495.75" style="stroke:#181818;stroke-width:1.0;"/><line style="stroke:#181818;stroke-width:1.0;" x1="268.5" x2="268.5" y1="481.75" y2="501.75"/><polygon fill="#181818" points="264.5,491.75,268.5,501.75,272.5,491.75,268.5,495.75" style="stroke:#181818;stroke-width:1.0;"/><line style="stroke:#181818;stroke-width:1.0;" x1="182.25" x2="182.25" y1="83.9688" y2="103.9688"/><polygon fill="#181818" points="178.25,93.9688,182.25,103.9688,186.25,93.9688,182.25,97.9688" style="stroke:#181818;stroke-width:1.0;"/><line style="stroke:#181818;stroke-width:1.0;" x1="182.25" x2="182.25" y1="503.25" y2="521.75"/><polygon fill="#181818" points="178.25,511.75,182.25,521.75,186.25,511.75,182.25,515.75" style="stroke:#181818;stroke-width:1.0;"/><line style="stroke:#181818;stroke-width:1.0;" x1="182.25" x2="182.25" y1="555.7188" y2="575.7188"/><polygon fill="#181818" points="178.25,565.7188,182.25,575.7188,186.25,565.7188,182.25,569.7188" style="stroke:#181818;stroke-width:1.0;"/><line style="stroke:#181818;stroke-width:1.0;" x1="182.25" x2="182.25" y1="609.6875" y2="629.6875"/><polygon fill="#181818" points="178.25,619.6875,182.25,629.6875,186.25,619.6875,182.25,623.6875" style="stroke:#181818;stroke-width:1.0;"/><!--MD5=[ea3caffc577c6fb4c9c4329f5d9b2e5f]
@startuml activite
start
:Image de départ en RGB;
split
    :Gaussian_blur();
    #SteelBlue:Passage en HSV;
    :EqualizeHist();
note left #FFAAAA: sur le canal S
    :inRange();
note left #FFAAAA: Limites sur la couleur verte
    #SteelBlue:Masque binaire;
    :Dilate & Erode; 
    :Mask_final;
split again
end split
  :bitwise_and;
  :terrain;
stop
@enduml

PlantUML version 1.2022.12(Sun Oct 23 20:12:26 CEST 2022)
(GPL source distribution)
Java Runtime: OpenJDK Runtime Environment
JVM: OpenJDK 64-Bit Server VM
Default Encoding: UTF-8
Language: fr
Country: FR
--></g></svg>